<?xml version="1.0" standalone="no"?>
<!DOCTYPE svg PUBLIC "-//W3C//DTD SVG 1.1//EN" "http://www.w3.org/Graphics/SVG/1.1/DTD/svg11.dtd" >
<svg xmlns="http://www.w3.org/2000/svg">
<metadata></metadata>
<defs>
<font id="4miniregular" horiz-adv-x="1365" >
<font-face units-per-em="2048" ascent="1638" descent="-410" />
<missing-glyph horiz-adv-x="975" />
<glyph horiz-adv-x="0" />
<glyph unicode="&#xd;" horiz-adv-x="975" />
<glyph unicode=" "  horiz-adv-x="975" />
<glyph unicode="&#x09;" horiz-adv-x="975" />
<glyph unicode="&#xa0;" horiz-adv-x="975" />
<glyph unicode="!" horiz-adv-x="780" d="M193 0h392v195h-392v-195zM195 388h390v979h-388z" />
<glyph unicode="&#x22;" horiz-adv-x="1072" d="M195 975h197v394h-195zM683 977h195v394h-193z" />
<glyph unicode="#" d="M195 201h975v386h-975v-386zM199 782h971v388h-971v-388zM390 1172h197v199h-195zM392 197l2 -199h193v199h-195zM394 583h195v199h-195v-199zM780 2h197v199h-197v-199zM780 581h195v199h-193zM784 1168h189v199h-189v-199z" />
<glyph unicode="$" d="M195 -2h780v195h-780v-195zM195 778h390v388h-390v-388zM390 -4v-195h195v195h-195zM390 583h585v195h-585v-195zM390 1168h780v195h-780v-195zM390 1363h195v195h-195v-195zM392 197h195v386h-195v-386zM780 193h390v388h-388zM780 1363h195v195h-195v-195zM782 -2v-195 h193v195h-193zM782 776h195v392h-195v-392z" />
<glyph unicode="%" horiz-adv-x="1564" d="M197 969h388v390h-388v-390zM394 -6h193v394h-193v-394zM589 193h195v581h-195v-581zM784 581h199v581h-199v-581zM979 -2h396v386h-396v-386zM979 969h193v392h-193v-392z" />
<glyph unicode="&#x26;" horiz-adv-x="1755" d="M195 197h392v579h-390zM195 977h392v193h-390zM390 776h780v201h-780v-201zM390 1168h780v195h-780v-195zM394 0h776v195h-776v-195zM587 587h585v189h-585v-189zM977 193h388v392h-388v-392zM979 977h386v193h-386v-193zM1369 0h191v782h-191v-782z" />
<glyph unicode="'" horiz-adv-x="583" d="M195 967h197v394h-195z" />
<glyph unicode="(" horiz-adv-x="971" d="M191 193h392v782h-390zM386 0h195v195h-195v-195zM386 1168l2 -193h193v193h-195zM583 -4v-195h193v195h-193zM585 1172h193v193h-193v-193z" />
<glyph unicode=")" horiz-adv-x="971" d="M191 1172v193h193v-193h-193zM193 -4h193v-195h-193v195zM386 193v782h390l2 -782h-392zM388 0v195h195v-195h-195zM388 975v193h195l-2 -193h-193z" />
<glyph unicode="*" horiz-adv-x="1351" d="M195 778h195v386h-195v-386zM197 193h193v388h-193v-388zM390 384h585v583h-585v-583zM585 -8h195v392h-195v-392zM585 967h195v392h-195v-392zM977 778h193v386h-193v-386zM979 189h191v388h-191v-388z" />
<glyph unicode="+" horiz-adv-x="1369" d="M197 583h977v193h-977v-193zM593 189h193v392h-193v-392zM593 774h193v392h-193v-392z" />
<glyph unicode="," horiz-adv-x="780" d="M199 -191h191v388h-191v-388zM392 2h193v392h-193v-392z" />
<glyph unicode="-" horiz-adv-x="1369" d="M197 583h977v193h-977v-193z" />
<glyph unicode="." horiz-adv-x="780" d="M195 -4h392v388h-392v-388z" />
<glyph unicode="/" horiz-adv-x="975" d="M195 -4h195v581h-195v-581zM390 388h197v581h-197v-581zM585 774h195v587h-195v-587z" />
<glyph unicode="0" d="M207 195h388v973h-388v-973zM392 0h585v195h-585v-195zM392 1176h585v195h-585v-195zM794 191h388v973h-388v-973z" />
<glyph unicode="1" horiz-adv-x="975" d="M197 973h191v199h-191v-199zM390 1363l2 -1363h392v1363h-394z" />
<glyph unicode="2" d="M193 195h388v386h-388v-386zM193 1166h778v195h-778v-195zM195 0h973v195h-973v-195zM388 583h585v195h-585v-195zM772 778h396v390h-396v-390z" />
<glyph unicode="3" d="M193 0h780v195h-780v-195zM197 1168h778v193h-778v-193zM390 583h581v193h-581v-193zM778 774h390v394h-390v-394zM780 197h388v386h-388v-386z" />
<glyph unicode="4" d="M193 386h585v193h-585v-193zM193 583h195v193h-195v-193zM390 776h195v193h-195v-193zM587 969h195v193h-195v-193zM780 -8h388v1367h-388v-1367z" />
<glyph unicode="5" d="M193 0h780v195h-780v-195zM195 778h780v193h-780v-193zM197 973h193v193h-193v-193zM197 1168h778v193h-778v-193zM780 197h388v585h-388v-585z" />
<glyph unicode="6" d="M193 193h388v585h-388v-585zM193 774h780v193h-780v-193zM195 969h386v193h-386v-193zM382 1164h591v194h-591v-194zM386 -4h587v195h-587v-195zM778 193h388v585h-388v-585z" />
<glyph unicode="7" d="M193 1170h585v193h-585v-193zM390 -4h388v587h-388v-587zM585 585h388v388h-388v-388zM784 975h388v388h-388v-388z" />
<glyph unicode="8" horiz-adv-x="1367" d="M195 778h390v390h-390v-390zM197 581l2 -390l388 2v388h-390zM392 587h585v189h-585v-189zM392 1168h587v195h-587v-195zM396 0h581v195h-581v-195zM784 193h388v392h-388v-392zM786 778h386v390h-386v-390z" />
<glyph unicode="9" d="M193 579h388v585h-388v-585zM386 0h591v193h-591v-193zM386 390h780v193h-780v-193zM388 1166h585v195h-585v-195zM778 195h386v193h-386v-193zM778 579h388v585h-388v-585z" />
<glyph unicode=":" horiz-adv-x="780" d="M195 4h392v388h-392v-388zM195 589h392v388h-392v-388z" />
<glyph unicode=";" horiz-adv-x="780" d="M195 589h392v388h-392v-388zM199 193v-388h197v388h-197zM390 4h197v388h-197v-388z" />
<glyph unicode="&#x3c;" horiz-adv-x="1168" d="M195 583h193v199h-193v-199zM386 390h197v583h-197v-583zM583 195h193v388h-193v-388zM583 778h193v388h-193v-388zM776 977h193v388h-193v-388zM778 0h197v388h-197v-388z" />
<glyph unicode="=" horiz-adv-x="1369" d="M197 782h977v193h-977v-193zM201 392h977v193h-977v-193z" />
<glyph unicode="&#x3e;" horiz-adv-x="1168" d="M195 0v388h197v-388h-197zM201 977v388h193v-388h-193zM394 195v388h193v-388h-193zM394 778v388h193v-388h-193zM587 390v583h197v-583h-197zM782 583v199h193v-199h-193z" />
<glyph unicode="?" d="M193 1170h778v195h-778v-195zM386 4h392v195h-392v-195zM392 394h388v386h-388v-386zM583 782h392v195h-392v-195zM772 977h396v195h-396v-195z" />
<glyph unicode="@" horiz-adv-x="1556" d="M193 201h388v585h-388v-585zM193 782h1168v199h-1168v-199zM195 977h386v193h-386v-193zM382 1172h784v193h-784v-193zM386 4h975v195h-975v-195zM585 390h583v199h-583v-199zM778 587h583v199h-583v-199zM973 979h386v193h-386v-193z" />
<glyph unicode="A" horiz-adv-x="1560" d="M199 -2h384v1170h-384v-1170zM386 1180h784v195h-784v-195zM583 388h396v195h-396v-195zM979 -2h386v1170h-386v-1170z" />
<glyph unicode="B" horiz-adv-x="1560" d="M195 0h390v1363h-390v-1363zM585 0h585v195h-585v-195zM587 776h583v195h-583v-195zM589 1166h581v195h-581v-195zM977 193h390v583h-390v-583zM977 971h388v195h-388v-195z" />
<glyph unicode="C" d="M195 195h390v975h-390v-975zM390 0h780v195h-780v-195zM392 1168h782v195h-782v-195z" />
<glyph unicode="D" horiz-adv-x="1568" d="M195 1170l2 -1170h388v1170h-390zM197 1168h973v195h-973v-195zM589 0h581v195h-581v-195zM975 195h390v973h-388z" />
<glyph unicode="E" horiz-adv-x="1373" d="M197 0h388v1170h-388v-1170zM197 1168h973v195h-973v-195zM587 776h484v195h-484v-195zM589 -2h583v195h-583v-195z" />
<glyph unicode="F" horiz-adv-x="1373" d="M197 0h388v1170h-388v-1170zM197 1168h973v195h-973v-195zM587 776h484v195h-484v-195z" />
<glyph unicode="G" horiz-adv-x="1462" d="M197 1172l2 -977h386v977h-388zM390 0h585v195h-585v-195zM390 1168h878v199h-878v-199zM979 0h306v782h-306v-782z" />
<glyph unicode="H" horiz-adv-x="1560" d="M195 1359l2 -1363h388v1363h-390zM587 772h388v195h-388v-195zM975 1359l2 -1363h388v1363h-390z" />
<glyph unicode="I" horiz-adv-x="778" d="M195 1359l2 -1363h388v1363h-390z" />
<glyph unicode="J" horiz-adv-x="1308" d="M195 -6v199h685v-199h-685zM683 191v1172h390l2 -1172h-392z" />
<glyph unicode="K" horiz-adv-x="1560" d="M195 1367l2 -1363h388v1363h-390zM589 396h195v579h-195v-579zM786 189h189v394h-189v-394zM786 784h189v394h-189v-394zM977 4h193v394h-193v-394zM977 975h193v394h-193v-394zM1172 2h193v197h-193v-197zM1172 1172h193v197h-193v-197z" />
<glyph unicode="L" horiz-adv-x="1373" d="M197 0h388v1363h-388v-1363zM589 -2h583v195h-583v-195z" />
<glyph unicode="M" horiz-adv-x="1755" d="M191 1168l2 -1168h388v1168h-390zM193 1168h193v195h-193v-195zM581 583h195v388h-195v-388zM780 390h195v388h-195v-388zM975 585h195v388h-195v-388zM1170 -4h388v1174h-388v-1174zM1365 1172h193v195h-193v-195z" />
<glyph unicode="N" horiz-adv-x="1562" d="M195 1166l2 -1168h388v1168h-390zM195 1166h195v195h-195v-195zM587 587h193v386h-193v-386zM780 392h193v386h-193v-386zM975 197h390v1166h-390v-1166zM1174 -2h193v195h-193v-195z" />
<glyph unicode="O" horiz-adv-x="1560" d="M197 191h396v973h-396v-973zM392 -4h780v195h-780v-195zM394 1174h780v195h-780v-195zM981 191h386v973h-386v-973z" />
<glyph unicode="P" horiz-adv-x="1560" d="M195 1170l2 -1170h388v1170h-390zM197 1178h973v195h-973v-195zM583 390h587v195h-587v-195zM977 583h388v585h-388v-585z" />
<glyph unicode="Q" horiz-adv-x="1560" d="M197 195h396v973h-396v-973zM388 1178h780v195h-780v-195zM392 0h780v195h-780v-195zM780 195h197v195h-197v-195zM979 0v-195h388v195h-388zM981 195h386v973h-386v-973z" />
<glyph unicode="R" horiz-adv-x="1560" d="M195 1166l2 -1170h388v1170h-390zM197 1172h973v195h-973v-195zM583 189h587v392h-587v-392zM975 579h390v585h-390v-585zM979 -2h388v191h-388v-191z" />
<glyph unicode="S" horiz-adv-x="1170" d="M195 1172l2 -388h386v388h-388zM197 0h583v195h-583v-195zM388 1172h587v195h-587v-195zM390 585h392v199h-392v-199zM589 195h386v390h-386v-390z" />
<glyph unicode="T" horiz-adv-x="1560" d="M197 1170h1168v195h-1168v-195zM589 0h386v1170h-386v-1170z" />
<glyph unicode="U" horiz-adv-x="1562" d="M201 197h386v1168h-386v-1168zM396 4h776v195h-776v-195zM979 199h388v1168h-388v-1168z" />
<glyph unicode="V" horiz-adv-x="1564" d="M201 780h388v583h-388v-583zM396 388h780v392h-780v-392zM587 0h394v388h-394v-388zM979 780h392v583h-392v-583z" />
<glyph unicode="W" horiz-adv-x="1759" d="M201 579h388v780h-388v-780zM396 -8h388v587h-388v-587zM784 390h191v384h-191v-384zM979 -4h390v587h-390v-587zM1174 581h390v780h-390v-780z" />
<glyph unicode="X" horiz-adv-x="1556" d="M193 -2h392v390h-392v-390zM193 973h392v390h-392v-390zM388 388h780v195h-780v-195zM390 774h778v197h-778v-197zM583 583h394v191h-394v-191zM975 -2h388v390h-388v-390zM975 971h388v390h-388v-390z" />
<glyph unicode="Y" horiz-adv-x="1554" d="M191 977h388v386h-388v-386zM386 778h780v197h-780v-197zM577 0h394v780h-394v-780zM973 977h388v386h-388v-386z" />
<glyph unicode="Z" d="M195 0h392v585h-392v-585zM195 1172h975v195h-975v-195zM390 585h587v195h-587v-195zM583 0h587v195h-587v-195zM585 390h195v195h-195v-195zM585 782h195v195h-195v-195zM780 782h388v390h-388v-390z" />
<glyph unicode="[" horiz-adv-x="977" d="M197 -4v-195h583v195h-583zM201 -4h386v1363h-386v-1363zM201 1361h583v195h-583v-195z" />
<glyph unicode="\" horiz-adv-x="975" d="M195 778v587h195v-587h-195zM388 392v581h197v-581h-197zM585 0v581h195v-581h-195z" />
<glyph unicode="]" horiz-adv-x="977" d="M197 1361v195h583v-195h-583zM201 -4h583v-195h-583v195zM394 -4v1363h386v-1363h-386z" />
<glyph unicode="^" horiz-adv-x="971" d="M201 977v193h193v-193h-193zM392 1172v193h193v-193h-193zM591 975v193h193v-193h-193z" />
<glyph unicode="_" horiz-adv-x="971" d="M2 0h973v-197h-973v197z" />
<glyph unicode="`" horiz-adv-x="782" d="M201 973v386h193v-386h-193zM392 1168v387h193v-387h-193z" />
<glyph unicode="a" horiz-adv-x="1367" d="M193 189h388v199h-388v-199zM380 388h394v195h-394v-195zM382 -2h392v195h-392v-195zM386 778h587v195h-587v-195zM776 -2h390l4 780h-394v-780z" />
<glyph unicode="b" horiz-adv-x="1363" d="M193 1367h390v-1365h-388zM581 2v185h396v-185h-396zM583 782v195h394v-195h-394zM780 191l2 585h386v-585h-388z" />
<glyph unicode="c" horiz-adv-x="1170" d="M195 778h388v-581h-386zM384 2v195h601v-195h-601zM384 778v195h601v-195h-601z" />
<glyph unicode="d" d="M195 187h388l-2 585h-386v-585zM386 -2h396v195h-396v-195zM386 778h394v195h-394v-195zM780 -2h392l-2 1365h-390v-1365z" />
<glyph unicode="e" horiz-adv-x="1363" d="M193 786l2 -589h386v589h-388zM380 2h786v195h-786v-195zM386 786h595v195h-595v-195zM581 388h585v195h-585v-195zM776 583h390v199h-388z" />
<glyph unicode="f" horiz-adv-x="990" d="M244 1168h390v-1170h-388zM439 1172v195h390v-195h-390zM634 774v195h195v-195h-195z" />
<glyph unicode="g" d="M195 386v382h392v-382h-392zM386 185v195h394v-195h-394zM386 772v195h396v-195h-396zM390 -16h587v-195h-587v195zM782 -16v985h388l4 -985h-392z" />
<glyph unicode="h" d="M195 1367h390v-1365h-388zM585 782v195h394v-195h-394zM782 2l2 774h386v-774h-388z" />
<glyph unicode="i" horiz-adv-x="778" d="M195 977h390v-979h-388zM199 1172v195h386v-195h-386z" />
<glyph unicode="j" horiz-adv-x="969" d="M185 -2h400v-195h-400v195zM382 -6l2 979h383v-979h-385zM384 1172v195h392v-195h-392z" />
<glyph unicode="k" d="M197 -2l2 1365h388v-1365h-390zM587 193v390h388v-390h-388zM784 581v195h390v-195h-390zM786 -2v195h384v-195h-384z" />
<glyph unicode="l" horiz-adv-x="778" d="M195 1363h390v-1365h-388z" />
<glyph unicode="m" horiz-adv-x="1952" d="M197 -2l2 981l388 -2v-979h-390zM585 782v195h199v-195h-199zM780 -2l2 979h388v-979h-390zM1172 782v195h388v-195h-388zM1365 0l2 782h388v-782h-390z" />
<glyph unicode="n" horiz-adv-x="1367" d="M197 -12l2 979h388v-979h-390zM589 772v195h388v-195h-388zM782 -10l2 782h388v-782h-390z" />
<glyph unicode="o" d="M195 778h388v-581h-386zM384 2v195h601v-195h-601zM384 778v195h601v-195h-601zM788 197v581h382v-581h-382z" />
<glyph unicode="p" d="M195 965l2 -1166h390v1166h-392zM589 770h390v195h-390v-195zM593 189h386v195h-386v-195zM782 770l2 -376h386v376h-388z" />
<glyph unicode="q" d="M195 392v386h388l-2 -386h-386zM386 197v195h394v-195h-394zM386 778v195h390v-195h-390zM778 -197v1170h392l2 -1170h-394z" />
<glyph unicode="r" horiz-adv-x="1170" d="M197 -2l2 975h392v-975h-394zM591 579v195h394v-195h-394zM786 770v195h203v-195h-203z" />
<glyph unicode="s" horiz-adv-x="1172" d="M197 -6h589v203h-589v-203zM197 581h390v197h-388zM386 388h396v195h-396v-195zM392 778h589v195h-589v-195zM587 197h390v191h-388z" />
<glyph unicode="t" horiz-adv-x="973" d="M195 197h390v1170h-388zM390 -2h390v195h-390v-195zM589 778h191v195h-191v-195z" />
<glyph unicode="u" horiz-adv-x="1367" d="M197 199v782h390l2 -782h-392zM392 4v195h388v-195h-388zM782 4v979h390l2 -979h-392z" />
<glyph unicode="v" d="M195 583v386h390l2 -386h-392zM390 197v386h589v-386h-589zM585 -6v203h199v-203h-199zM780 583v386h392l-2 -386h-390z" />
<glyph unicode="w" horiz-adv-x="1755" d="M195 388v581h394l-2 -581h-392zM390 -6v390h394l2 -390h-396zM786 187v595h189v-595h-189zM975 -2v390h390l2 -390h-392zM1172 388v581h388l2 -581h-390z" />
<glyph unicode="x" horiz-adv-x="1363" d="M193 -4v396h394l-2 -396h-392zM193 587v386h392l-2 -386h-390zM386 386v201h587v-201h-587zM579 587v193h199v-193h-199zM587 197v189h191v-189h-191zM780 587v386h386l2 -386h-388zM786 -2v394h380l2 -394h-382z" />
<glyph unicode="y" horiz-adv-x="1361" d="M191 388v589h394l-2 -589h-392zM386 -6h587v-195h-587v195zM386 193v195h386v-195h-386zM778 -8v981h388l2 -981h-390z" />
<glyph unicode="z" d="M193 193v191h394l-2 -191h-392zM193 778v195h983v-195h-983zM197 0v193h971v-193h-971zM388 384v195h581v-195h-581zM778 581v197h394l-2 -197h-392z" />
<glyph unicode="{" horiz-adv-x="1164" d="M189 583v199h201v-199h-201zM392 774v199h193v-199h-193zM392 973h197v390h382v195h-579v-585zM394 -199v585h197v-390l382 2v-197h-579zM394 386v199h199v-199h-199z" />
<glyph unicode="|" horiz-adv-x="583" d="M201 -195v1660h193v-1660h-193z" />
<glyph unicode="}" horiz-adv-x="1164" d="M189 -2v-193h579v585h-197v-390zM191 1367v195h579v-585h-197v390h-382zM570 390h198v199h-198v-199zM577 778h193v199h-193v-199zM772 587h201v199h-201v-199z" />
<glyph unicode="~" horiz-adv-x="1172" d="M197 880v197h197v-197h-197zM396 1079v197h197v-197h-197zM587 874v197h197v-197h-197zM786 1075v197h197v-197h-197z" />
<glyph unicode="&#xad;" horiz-adv-x="1369" d="M197 583h977v193h-977v-193z" />
<glyph unicode="&#xd3;" horiz-adv-x="1560" d="M197 191h396v973h-396v-973zM392 -4h780v195h-780v-195zM392 1180h780v195h-780v-195zM585 1365h195v199h-195v-199zM784 1570h195v199h-195v-199zM981 191h386v973h-386v-973z" />
<glyph unicode="&#xf3;" d="M195 772h388v-581h-386zM384 -4v195h601v-195h-601zM384 772v195h601v-195h-601zM581 967h195v199h-195v-199zM780 1162h195v199h-195v-199zM788 191v581h382v-581h-382z" />
<glyph unicode="&#x2000;" horiz-adv-x="884" />
<glyph unicode="&#x2001;" horiz-adv-x="1769" />
<glyph unicode="&#x2002;" horiz-adv-x="884" />
<glyph unicode="&#x2003;" horiz-adv-x="1769" />
<glyph unicode="&#x2004;" horiz-adv-x="589" />
<glyph unicode="&#x2005;" horiz-adv-x="442" />
<glyph unicode="&#x2006;" horiz-adv-x="294" />
<glyph unicode="&#x2007;" horiz-adv-x="294" />
<glyph unicode="&#x2008;" horiz-adv-x="221" />
<glyph unicode="&#x2009;" horiz-adv-x="353" />
<glyph unicode="&#x200a;" horiz-adv-x="98" />
<glyph unicode="&#x2010;" horiz-adv-x="1369" d="M197 583h977v193h-977v-193z" />
<glyph unicode="&#x2011;" horiz-adv-x="1369" d="M197 583h977v193h-977v-193z" />
<glyph unicode="&#x2012;" horiz-adv-x="1369" d="M197 583h977v193h-977v-193z" />
<glyph unicode="&#x2013;" horiz-adv-x="1416" d="M197 583h1024v193h-1024v-193z" />
<glyph unicode="&#x2014;" horiz-adv-x="2440" d="M197 583h2048v193h-2048v-193z" />
<glyph unicode="&#x202f;" horiz-adv-x="353" />
<glyph unicode="&#x205f;" horiz-adv-x="442" />
<glyph unicode="&#x25fc;" horiz-adv-x="975" d="M0 0v975h975v-975h-975z" />
</font>
</defs>
</svg>
