<?xml version="1.0" standalone="no"?> <!DOCTYPE svg PUBLIC "-//W3C//DTD SVG 1.0//EN" "http://www.w3.org/TR/2001/REC-SVG-20010904/DTD/svg10.dtd" > <svg xmlns="http://www.w3.org/2000/svg" width="100%" height="100%">
<defs >
<font horiz-adv-x="672" ><font-face
    font-family="4Mini"
    units-per-em="1050"
    panose-1="0 0 0 0 0 0 0 0 0 0"
    ascent="800"
    descent="-250"
    alphabetic="0" />
<missing-glyph horiz-adv-x="693" d="M100 99V298H1V99H100ZM400 197V496H100V197H400ZM300 -4V197H200V-4H300ZM300 496V697H200V496H300ZM100 399V597H0V399H100ZM500 97V296H402V97H500ZM500 399V597H401V399H500Z" />
<glyph unicode=" " glyph-name="space" horiz-adv-x="500" />
<glyph unicode="!" glyph-name="exclam" horiz-adv-x="400" d="M200 0V100H-1V0H200ZM0 199H200V701H1L0 199Z" />
<glyph unicode="&quot;" glyph-name="quotedbl" horiz-adv-x="550" d="M250 501H350V703H251L250 501ZM0 500H101V702H1L0 500Z" />
<glyph unicode="#" glyph-name="numbersign" horiz-adv-x="700" d="M500 103V301H0V103H500ZM300 1H401V103H300V1ZM102 -1H201V101H101L102 -1ZM302 599H399V701H302V599ZM100 601H201V703H101L100 601ZM500 401V600H2V401H500ZM102 299H202V401H102V299ZM300
298H400V400H301L300 298Z" />
<glyph unicode="$" glyph-name="dollar" horiz-adv-x="700" d="M400 -1V99H0V-1H400ZM300 99H500V298H301L300 99ZM201 101V299H101V101H201ZM400 299V399H100V299H400ZM0 399H200V598H0V399ZM500 599V699H100V599H500ZM400 -101V-1H301V-101H400ZM400 699V799H300V699H400ZM401
398V599H301V398H401ZM200 699V799H100V699H200ZM200 -102V-2H100V-102H200Z" />
<glyph unicode="%" glyph-name="percent" horiz-adv-x="802" d="M201 -3V199H102V-3H201ZM402 -1H605V197H402V-1ZM501 497V698H402V497H501ZM404 298V596H302V298H404ZM302 99V397H202V99H302ZM1 497H200V697H1V497Z" />
<glyph unicode="&amp;" glyph-name="ampersand" horiz-adv-x="900" d="M401 99H600V300H401V99ZM501 301V398H201V301H501ZM500 599V699H100V599H500ZM500 0V100H102V0H500ZM0 501H201V600H1L0 501ZM402 501H600V600H402V501ZM500 398V501H100V398H500ZM602 0H700V401H602V0ZM0
101H201V398H1L0 101Z" />
<glyph unicode="&apos;" glyph-name="quotesingle" horiz-adv-x="299" d="M0 496H101V698H1L0 496Z" />
<glyph unicode="(" glyph-name="parenleft" horiz-adv-x="498" d="M300 -102V-2H201V-102H300ZM202 601H301V700H202V601ZM0 99H201V500H1L0 99ZM101 500H200V599H100L101 500ZM200 0V100H100V0H200Z" />
<glyph unicode=")" glyph-name="parenright" horiz-adv-x="498" d="M1 -102V-2H100V-102H1ZM99 601H0V700H99V601ZM301 99H100V500H300L301 99ZM200 500H101V599H201L200 500ZM101 0V100H201V0H101Z" />
<glyph unicode="*" glyph-name="asterisk" horiz-adv-x="693" d="M100 99V298H1V99H100ZM400 197V496H100V197H400ZM300 -4V197H200V-4H300ZM300 496V697H200V496H300ZM100 399V597H0V399H100ZM500 97V296H402V97H500ZM500 399V597H401V399H500Z" />
<glyph unicode="+" glyph-name="plus" horiz-adv-x="702" d="M306 97V298H207V97H306ZM306 397V598H207V397H306ZM505 299V398H4V299H505Z" />
<glyph unicode="," glyph-name="comma" horiz-adv-x="400" d="M100 -98V101H2V-98H100ZM200 1V202H101V1H200Z" />
<glyph unicode="-" glyph-name="hyphen" horiz-adv-x="702" d="M502 299V398H1V299H502Z" />
<glyph unicode="." glyph-name="period" horiz-adv-x="400" d="M201 -2V197H0V-2H201Z" />
<glyph unicode="/" glyph-name="slash" horiz-adv-x="500" d="M300 397V698H200V397H300ZM201 199V497H100V199H201ZM100 -2V296H0V-2H100Z" />
<glyph unicode="0" glyph-name="zero" horiz-adv-x="700" d="M0 100H199V599H0V100ZM395 0V100H95V0H395ZM301 98H500V597H301V98ZM395 599V699H95V599H395Z" />
<glyph unicode="1" glyph-name="one" horiz-adv-x="500" d="M101 0H302V699H100L101 0ZM1 499H99V601H1V499Z" />
<glyph unicode="2" glyph-name="two" horiz-adv-x="700" d="M400 598V698H1V598H400ZM501 0V100H2V0H501ZM200 100V298H1V100H200ZM401 299V399H101V299H401ZM501 399V599H298V399H501Z" />
<glyph unicode="3" glyph-name="three" horiz-adv-x="700" d="M402 599V698H3V599H402ZM401 0V100H1V0H401ZM501 101V299H302V101H501ZM400 299V398H102V299H400ZM501 397V599H301V397H501Z" />
<glyph unicode="4" glyph-name="four" horiz-adv-x="700" d="M101 299V398H1V299H101ZM501 -4V697H302V-4H501ZM301 198V297H1V198H301ZM303 497V596H203V497H303ZM202 398V497H102V398H202Z" />
<glyph unicode="5" glyph-name="five" horiz-adv-x="700" d="M102 499V598H3V499H102ZM401 0V100H1V0H401ZM501 101V401H302V101H501ZM402 399V498H2V399H402ZM402 599V698H3V599H402Z" />
<glyph unicode="6" glyph-name="six" horiz-adv-x="700" d="M198 497V596H0V497H198ZM399 -2V98H98V-2H399ZM198 99V399H-1V99H198ZM399 397V496H-1V397H399ZM399 597V696H96V597H399ZM498 99V399H299V99H498Z" />
<glyph unicode="7" glyph-name="seven" horiz-adv-x="700" d="M503 500V699H304V500H503ZM301 600V699H1V600H301ZM301 -2V299H102V-2H301ZM401 300V499H202V300H401Z" />
<glyph unicode="8" glyph-name="eight" horiz-adv-x="701" d="M302 99H501V300H302V99ZM401 301V398H101V301H401ZM402 599V699H101V599H402ZM401 0V100H103V0H401ZM0 399H200V599H0V399ZM303 399H501V599H303V399ZM2 98L201 99V298H1L2 98Z" />
<glyph unicode="9" glyph-name="nine" horiz-adv-x="700" d="M301 199V100H499V199H301ZM101 698V598H401V698H101ZM301 597V297H500V597H301ZM100 299V200H500V299H100ZM100 99V0H403V99H100ZM1 597V297H200V597H1Z" />
<glyph unicode=":" glyph-name="colon" horiz-adv-x="400" d="M203 302V501H2V302H203ZM203 2V201H2V2H203Z" />
<glyph unicode=";" glyph-name="semicolon" horiz-adv-x="400" d="M199 302V501H-2V302H199ZM101 -100V99H0V-100H101ZM199 2V201H98V2H199Z" />
<glyph unicode="&lt;" glyph-name="less" horiz-adv-x="599" d="M204 200V499H103V200H204ZM405 0V199H304V0H405ZM104 299V401H5V299H104ZM402 501V700H303V501H402ZM303 100V299H204V100H303ZM303 399V598H204V399H303Z" />
<glyph unicode="=" glyph-name="equal" horiz-adv-x="702" d="M501 201V300H0V201H501ZM499 401V500H-2V401H499Z" />
<glyph unicode="&gt;" glyph-name="greater" horiz-adv-x="599" d="M201 200V499H302V200H201ZM0 0V199H101V0H0ZM301 299V401H400V299H301ZM3 501V700H102V501H3ZM102 100V299H201V100H102ZM102 399V598H201V399H102Z" />
<glyph unicode="?" glyph-name="question" horiz-adv-x="700" d="M400 600V700H1V600H400ZM301 2V102H100V2H301ZM302 202V400H103V202H302ZM402 401V501H201V401H402ZM501 501V601H298V501H501Z" />
<glyph unicode="@" glyph-name="at" horiz-adv-x="798" d="M597 502V601H399V502H597ZM598 2V102H98V2H598ZM198 103V403H-1V103H198ZM598 401V503H-1V401H598ZM498 601V700H96V601H498ZM499 200V302H200V200H499ZM198 501V600H0V501H198ZM598 301V403H299V301H598Z" />
<glyph unicode="A" glyph-name="A" horiz-adv-x="800" d="M400 199V299H197V199H400ZM498 599V699H96V599H498ZM400 -1H598V599H400V-1ZM0 -1H197V599H0V-1Z" />
<glyph unicode="B" glyph-name="B" horiz-adv-x="800" d="M403 99H603V398H403V99ZM502 398V498H203V398H502ZM2 0H202V699H2V0ZM502 0V100H202V0H502ZM502 598V698H204V598H502ZM602 498V598H403V498H602Z" />
<glyph unicode="C" glyph-name="C" horiz-adv-x="700" d="M502 0V100H102V0H502ZM2 100H202V600H2V100ZM504 599V699H103V599H504Z" />
<glyph unicode="D" glyph-name="D" horiz-adv-x="804" d="M400 100H600V599H401L400 100ZM500 599V699H1V599H500ZM1 0H200V600H0L1 0ZM500 0V100H202V0H500Z" />
<glyph unicode="E" glyph-name="E" horiz-adv-x="704" d="M451 398V498H203V398H451ZM502 599V699H3V599H502ZM3 0H202V600H3V0ZM503 -1V99H204V-1H503Z" />
<glyph unicode="F" glyph-name="F" horiz-adv-x="704" d="M449 398V498H201V398H449ZM500 599V699H1V599H500ZM1 0H200V600H1V0Z" />
<glyph unicode="G" glyph-name="G" horiz-adv-x="750" d="M404 0H561V401H404V0ZM552 599V701H102V599H552ZM4 100H202V601H3L4 100ZM402 0V100H102V0H402Z" />
<glyph unicode="H" glyph-name="H" horiz-adv-x="800" d="M400 396V496H201V396H400ZM401 -2H600V697H400L401 -2ZM1 -2H200V697H0L1 -2Z" />
<glyph unicode="I" glyph-name="I" horiz-adv-x="399" d="M1 -2H200V697H0L1 -2Z" />
<glyph unicode="J" glyph-name="J" horiz-adv-x="671" d="M0 -3V99H351V-3H0ZM451 98H250V699H450L451 98Z" />
<glyph unicode="K" glyph-name="K" horiz-adv-x="800" d="M302 203V500H202V203H302ZM1 2H200V701H0L1 2ZM400 97V299H303V97H400ZM500 2V204H401V2H500ZM400 402V604H303V402H400ZM600 1V102H501V1H600ZM500 500V702H401V500H500ZM600 601V702H501V601H600Z" />
<glyph unicode="L" glyph-name="L" horiz-adv-x="704" d="M-2 0H197V699H-2V0ZM498 -1V99H199V-1H498Z" />
<glyph unicode="M" glyph-name="M" horiz-adv-x="900" d="M502 300V499H402V300H502ZM502 -2H701V600H502V-2ZM1 0H200V599H0L1 0ZM100 599V699H1V599H100ZM701 601V701H602V601H701ZM300 299V498H200V299H300ZM402 200V399H302V200H402Z" />
<glyph unicode="N" glyph-name="N" horiz-adv-x="801" d="M399 201V399H300V201H399ZM400 101H600V699H400V101ZM1 -1H200V598H0L1 -1ZM100 598V698H0V598H100ZM601 -1V99H502V-1H601ZM300 301V499H201V301H300Z" />
<glyph unicode="O" glyph-name="O" horiz-adv-x="800" d="M-4 98H199V597H-4V98ZM496 -2V98H96V-2H496ZM398 98H596V597H398V98ZM496 597V697H96V597H496Z" />
<glyph unicode="P" glyph-name="P" horiz-adv-x="800" d="M395 299H595V599H396L395 299ZM495 599V699H-4V599H495ZM-4 0H195V600H-5L-4 0ZM495 200V300H194V200H495Z" />
<glyph unicode="Q" glyph-name="Q" horiz-adv-x="800" d="M1 100H204V599H1V100ZM401 100V200H300V100H401ZM403 100H601V599H403V100ZM501 599V699H101V599H501ZM501 0V100H101V0H501ZM601 -100V0H402V-100H601Z" />
<glyph unicode="R" glyph-name="R" horiz-adv-x="800" d="M405 297H605V597H406L405 297ZM505 597V697H6V597H505ZM6 -2H205V598H5L6 -2ZM606 -1V97H407V-1H606ZM505 97V298H204V97H505Z" />
<glyph unicode="S" glyph-name="S" horiz-adv-x="600" d="M300 0V100H1V0H300ZM202 100H400V300H202V100ZM400 601V701H99V601H400ZM301 300V402H100V300H301ZM1 402H199V601H0L1 402Z" />
<glyph unicode="T" glyph-name="T" horiz-adv-x="800" d="M600 600V700H1V600H600ZM202 0H400V600H202V0Z" />
<glyph unicode="U" glyph-name="U" horiz-adv-x="801" d="M1 101H199V700H1V101ZM499 2V102H101V2H499ZM400 102H599V701H400V102Z" />
<glyph unicode="V" glyph-name="V" horiz-adv-x="802" d="M1 400H200V699H1V400ZM501 199V400H101V199H501ZM400 400H601V699H400V400ZM401 0V199H199V0H401Z" />
<glyph unicode="W" glyph-name="W" horiz-adv-x="902" d="M3 297H202V697H3V297ZM502 298H702V698H502V298ZM400 200V397H302V200H400ZM602 -2V299H402V-2H602ZM302 -4V297H103V-4H302Z" />
<glyph unicode="X" glyph-name="X" horiz-adv-x="798" d="M1 -1H202V199H1V-1ZM403 299V397H201V299H403ZM402 -1H601V199H402V-1ZM501 199V299H101V199H501ZM501 397V498H102V397H501ZM1 499H202V699H1V499ZM402 498H601V698H402V498Z" />
<glyph unicode="Y" glyph-name="Y" horiz-adv-x="797" d="M3 501H202V699H3V501ZM503 399V500H103V399H503ZM404 501H603V699H404V501ZM403 0V400H201V0H403Z" />
<glyph unicode="Z" glyph-name="Z" horiz-adv-x="700" d="M300 401V501H200V401H300ZM500 601V701H0V601H500ZM300 401H499V601H300V401ZM500 0V100H199V0H500ZM401 300V400H100V300H401ZM0 0H201V300H0V0ZM300 200V300H200V200H300Z" />
<glyph unicode="[" glyph-name="bracketleft" horiz-adv-x="501" d="M297 -102V-2H-2V-102H297ZM0 -2H198V697H0V-2ZM299 698V798H0V698H299Z" />
<glyph unicode="\" glyph-name="backslash" horiz-adv-x="500" d="M0 399V700H100V399H0ZM99 201V499H200V201H99ZM200 0V298H300V0H200Z" />
<glyph unicode="]" glyph-name="bracketright" horiz-adv-x="501" d="M3 -102V-2H302V-102H3ZM300 -2H102V697H300V-2ZM1 698V798H300V698H1Z" />
<glyph unicode="^" glyph-name="asciicircum" horiz-adv-x="498" d="M202 599H301V500H202V599ZM2 600H101V501H2V600ZM100 700H199V601H100V700Z" />
<glyph unicode="_" glyph-name="underscore" horiz-adv-x="498" d="M501 -101H2V0H501V-101Z" />
<glyph unicode="`" glyph-name="grave" horiz-adv-x="401" d="M4 697H103V499H4V697ZM102 797H201V599H102V797Z" />
<glyph unicode="a" glyph-name="a" horiz-adv-x="701" d="M200 199H1V97H200V199ZM98 99V-1H299V99H98ZM502 399H300V-1H500L502 399ZM100 499V399H401V499H100ZM97 299V199H299V299H97Z" />
<glyph unicode="b" glyph-name="b" horiz-adv-x="699" d="M302 398H500V98H301L302 398ZM402 101V1H199V101H402ZM0 701H200V1H1L0 701ZM402 501V401H200V501H402Z" />
<glyph unicode="c" glyph-name="c" horiz-adv-x="600" d="M0 399H199V101H1L0 399ZM405 101V1H97V101H405ZM405 499V399H97V499H405Z" />
<glyph unicode="d" glyph-name="d" horiz-adv-x="700" d="M200 396H2V96H201L200 396ZM100 99V-1H303V99H100ZM502 699H302V-1H503L502 699ZM100 499V399H302V499H100Z" />
<glyph unicode="e" glyph-name="e" horiz-adv-x="699" d="M300 299H500V401H301L300 299ZM405 403V503H100V403H405ZM2 101H200V403H1L2 101ZM500 1V101H97V1H500ZM500 199V299H200V199H500Z" />
<glyph unicode="f" glyph-name="f" horiz-adv-x="508" d="M300 497V397H200V497H300ZM0 599H200V-1H1L0 599ZM300 701V601H100V701H300Z" />
<glyph unicode="g" glyph-name="g" horiz-adv-x="700" d="M201 194H0V394H200L201 194ZM98 394V494H301V394H98ZM502 -8H301V493H500L502 -8ZM100 -108V-8H401V-108H100ZM98 95V195H300V95H98Z" />
<glyph unicode="h" glyph-name="h" horiz-adv-x="700" d="M297 398H495V1H296L297 398ZM-5 701H195V1H-4L-5 701ZM397 501V401H195V501H397Z" />
<glyph unicode="i" glyph-name="i" horiz-adv-x="399" d="M203 701V601H5V701H203ZM3 501H203V-1H4L3 501Z" />
<glyph unicode="j" glyph-name="j" horiz-adv-x="497" d="M207 -1V-101H2V-1H207ZM104 499H300V-3H103L104 499ZM305 701V601H104V701H305Z" />
<glyph unicode="k" glyph-name="k" horiz-adv-x="700" d="M2 699H201V-1H1L2 699ZM500 99V-1H303V99H500ZM400 299V99H201V299H400ZM502 398V298H302V398H502Z" />
<glyph unicode="l" glyph-name="l" horiz-adv-x="399" d="M-2 699H198V-1H-1L-2 699Z" />
<glyph unicode="m" glyph-name="m" horiz-adv-x="1001" d="M601 401H800V0H600L601 401ZM2 502L201 501V-1H1L2 502ZM700 501V401H501V501H700ZM302 501V401H200V501H302ZM301 501H500V-1H300L301 501Z" />
<glyph unicode="n" glyph-name="n" horiz-adv-x="701" d="M301 396H500V-5H300L301 396ZM400 496V396H201V496H400ZM1 496H200V-6H0L1 496Z" />
<glyph unicode="o" glyph-name="o" horiz-adv-x="700" d="M304 399H500V101H304V399ZM405 101V1H97V101H405ZM405 499V399H97V499H405ZM0 399H199V101H1L0 399Z" />
<glyph unicode="p" glyph-name="p" horiz-adv-x="700" d="M302 197H500V395H301L302 197ZM402 395V495H202V395H402ZM1 -103H201V495H0L1 -103ZM402 97V197H200V97H402Z" />
<glyph unicode="q" glyph-name="q" horiz-adv-x="700" d="M196 201H-2V399H197L196 201ZM96 399V499H296V399H96ZM499 -101H297V499H498L499 -101ZM96 101V201H298V101H96Z" />
<glyph unicode="r" glyph-name="r" horiz-adv-x="600" d="M4 499H205V-1H3L4 499ZM409 495V395H305V495H409ZM407 397V297H205V397H407Z" />
<glyph unicode="s" glyph-name="s" horiz-adv-x="601" d="M203 101H403V199H204L203 101ZM303 199V299H100V199H303ZM3 298H203V399H4L3 298ZM305 -3V101H3V-3H305ZM405 399V499H103V399H405Z" />
<glyph unicode="t" glyph-name="t" horiz-adv-x="499" d="M303 399V499H205V399H303ZM3 101H203V701H4L3 101ZM303 -1V99H103V-1H303Z" />
<glyph unicode="u" glyph-name="u" horiz-adv-x="701" d="M201 102H0V503H200L201 102ZM100 2V102H299V2H100ZM501 2H300V504H500L501 2Z" />
<glyph unicode="v" glyph-name="v" horiz-adv-x="700" d="M302 -3H200V101H302V-3ZM500 299H300V497H501L500 299ZM100 101V299H402V101H100ZM201 299H0V497H200L201 299Z" />
<glyph unicode="w" glyph-name="w" horiz-adv-x="900" d="M400 96H303V401H400V96ZM701 199H501V497H700L701 199ZM601 -1H400V199H600L601 -1ZM201 199H0V497H202L201 199ZM303 -3H100V197H302L303 -3Z" />
<glyph unicode="x" glyph-name="x" horiz-adv-x="699" d="M304 101H206V198H304V101ZM504 -1H308V201H503L504 -1ZM103 198V301H404V198H103ZM205 -2H4V201H206L205 -2ZM204 301H4V499H205L204 301ZM504 301H305V499H503L504 301ZM304 301H202V400H304V301Z" />
<glyph unicode="y" glyph-name="y" horiz-adv-x="698" d="M201 199H0V501H202L201 199ZM100 -103V-3H401V-103H100ZM501 -4H301V499H500L501 -4ZM100 99V199H298V99H100Z" />
<glyph unicode="z" glyph-name="z" horiz-adv-x="700" d="M203 99H2V197H204L203 99ZM102 197V297H400V197H102ZM503 298H302V399H504L503 298ZM4 0V99H502V0H4ZM2 399V499H506V399H2Z" />
<glyph unicode="{" glyph-name="braceleft" horiz-adv-x="597" d="M403 799H106V499H207V699H403V799ZM209 198H107V300H209V198ZM404 -102H107V198H208V-2L404 -1V-102ZM105 299H2V401H105V299ZM205 397H106V499H205V397Z" />
<glyph unicode="|" glyph-name="bar" horiz-adv-x="299" d="M-2 -100V751H97V-100H-2Z" />
<glyph unicode="}" glyph-name="braceright" horiz-adv-x="597" d="M3 801H300V501H199V701H3V801ZM197 200H299V302H197V200ZM2 -100H299V200H198V0L2 -1V-100ZM301 301H404V403H301V301ZM201 399H300V501H201V399Z" />
<glyph unicode="~" glyph-name="asciitilde" horiz-adv-x="601" d="M301 448H200V549H301V448ZM203 553H102V654H203V553ZM101 451H0V552H101V451ZM403 551H302V652H403V551Z" />
</font>
</defs>
</svg>
